# xmcd
#
# Track frame offsets: 
#        150
#        13707
#        26469
#        46626
#        58327
#        69527
#        82347
#        96499
#        107138
#        118109
#        130147
#        146033
#        158992
#        173504
#        184839
#        198061
#        205395
#        218460
#        229294
#        241414
#        253147
#        265572
#        277961
#        290424
#
# Disc length: 4017 seconds
#
# Revision: 0
# Processed by: cddbd v1.5.2PL0 Copyright (c) Steve Scherf et al.
# Submitted via: ExactAudioCopy v1.0b1
#
DISCID=620faf18
DTITLE=Meters, The - Here Comes The Meter Man: The Complete Josie Reco
DTITLE=rdins 1968-1970
DYEAR=2011
DGENRE=Funk
TTITLE0=Cissy Strut
TTITLE1=Here Comes the Meter Man
TTITLE2=Cardova
TTITLE3=Live Wire
TTITLE4=Art
TTITLE5=Sophisticated Cissy
TTITLE6=Ease Back
TTITLE7=646 La
TTITLE8=Sehorn's Farm
TTITLE9=Ann
TTITLE10=Stormy
TTITLE11=Simple Song
TTITLE12=Look-Ka Py-Py
TTITLE13=Rigor Mortis
TTITLE14=Pungee
TTITLE15=Thinking
TTITLE16=This Is My Last Affair
TTITLE17=Funky Miracle
TTITLE18=Yeah You're Right
TTITLE19=Little Old Money Maker
TTITLE20=Oh Calcutta!
TTITLE21=The Mob
TTITLE22=9 'Til 5
TTITLE23=Dry Spell
EXTD=
EXTT0=
EXTT1=
EXTT2=
EXTT3=
EXTT4=
EXTT5=
EXTT6=
EXTT7=
EXTT8=
EXTT9=
EXTT10=
EXTT11=
EXTT12=
EXTT13=
EXTT14=
EXTT15=
EXTT16=
EXTT17=
EXTT18=
EXTT19=
EXTT20=
EXTT21=
EXTT22=
EXTT23=
PLAYORDER=
